<svg width="320" height="143.20970519194918" viewBox="0 0 320 143.20970519194918" class="css-1j8o68f"><defs id="SvgjsDefs1001"><linearGradient id="SvgjsLinearGradient1011"><stop id="SvgjsStop1012" stop-color="#00ff8f" offset="0"></stop><stop id="SvgjsStop1013" stop-color="#00a1ff" offset="1"></stop></linearGradient></defs><g id="SvgjsG1007" featurekey="JKiIdh-0" transform="matrix(1.5669315657534262,0,0,1.5669315657534262,-28.34579226357426,-6.740939667599674)" fill="url(#SvgjsLinearGradient1011)"><path xmlns="http://www.w3.org/2000/svg" d="M50,4.302c-8.556,18.904-16.713,31.595-31.91,45.697C33.287,64.103,41.443,76.794,50,95.697  c8.557-18.903,16.713-31.595,31.909-45.698C66.713,35.897,58.557,23.204,50,4.302z M72.845,50.718  c-1.541,1.614-3.14,3.169-4.714,4.751c-0.405,0.386-0.763,0.814-1.149,1.215l-1.142,1.222c-0.765,0.812-1.513,1.639-2.293,2.44  c-0.781,0.8-1.476,1.676-2.219,2.511l-2.235,2.508c-0.385,0.41-0.721,0.856-1.086,1.285l-1.074,1.294  c-0.726,0.86-1.464,1.714-2.22,2.56c0.545-0.987,1.108-1.967,1.685-2.939l0.878-1.454c0.302-0.477,0.564-0.985,0.902-1.437  l1.96-2.771c0.679-0.904,1.312-1.852,2.032-2.725c0.712-0.88,1.455-1.733,2.183-2.603l1.097-1.299  c0.367-0.433,0.726-0.872,1.129-1.27c1.327-1.359,2.643-2.73,3.984-4.076c-1.1-1.123-2.199-2.244-3.269-3.392  c-0.34-0.345-0.644-0.725-0.965-1.087l-0.951-1.099l-1.868-2.226c-0.625-0.739-1.189-1.537-1.77-2.314  c-0.572-0.783-1.161-1.554-1.718-2.344c-0.289-0.389-0.531-0.805-0.799-1.207c-0.265-0.403-0.522-0.811-0.776-1.22  c-0.519-0.815-1.018-1.643-1.513-2.474c0.664,0.705,1.323,1.411,1.964,2.133c0.325,0.356,0.646,0.716,0.962,1.081  c0.323,0.357,0.626,0.737,0.964,1.077c0.671,0.689,1.312,1.398,1.968,2.095l0.974,1.048c0.321,0.353,0.632,0.713,0.976,1.047  l2.016,2.042l0.991,1.034c0.333,0.341,0.648,0.7,1.002,1.023c1.39,1.312,2.737,2.665,4.095,4.006l0.769,0.761L72.845,50.718z"></path></g><g id="SvgjsG1008" featurekey="A7DQL5-0" transform="matrix(2.7063598899921857,0,0,2.7063598899921857,120.00000048393485,38.525034685869755)" fill="#ffffff"><path d="M2.56 13.36 l3.96 6.64 l0.78 0 l-4.34 -7.28 z M2.64 12.14 l4.48 -7.84 l-0.8 0 l-5.64 9.94 l0 -9.98 l-0.68 0 l0 11.24 l0.68 0 l0 -0.02 l1.54 -2.68 z M11.98 11.02 l1.78 1.66 c0.56 0.52 1 1.0767 1.32 1.67 s0.48 1.19 0.48 1.79 l0 0.26 c0.01334 0.42666 -0.04 0.80666 -0.16 1.14 l0.74 0 c0.10666 -0.36 0.15332 -0.73334 0.13998 -1.12 l0 -0.28 c0 -0.72 -0.18334 -1.4067 -0.55 -2.06 s-0.87666 -1.2933 -1.53 -1.92 l-1.72 -1.62 c-0.54666 -0.52 -0.99666 -1.0067 -1.35 -1.46 s-0.53 -1.02 -0.53 -1.7 l0 -0.12 c0 -0.70666 0.19666 -1.2767 0.59 -1.71 s0.94334 -0.65 1.65 -0.65 c0.50666 0 0.92 0.07666 1.24 0.23 s0.64666 0.38334 0.98 0.69 l0.46 -0.52 c-0.37334 -0.34666 -0.75668 -0.60666 -1.15 -0.78 s-0.90334 -0.26 -1.53 -0.26 c-0.81334 0 -1.5033 0.26334 -2.07 0.79 s-0.85 1.2567 -0.85 2.19 l0 0.16 c0 0.76 0.19 1.41 0.57 1.95 s0.87666 1.0967 1.49 1.67 z M15.86 18.3 l-0.82002 0 c-0.46666 0.68 -1.2133 1.0267 -2.24 1.04 c-0.34666 0 -0.66 -0.04 -0.94 -0.12 l0 0.7 c0.28 0.05334 0.59334 0.08 0.94 0.08 c0.72 0 1.34 -0.14666 1.86 -0.44 s0.92 -0.71334 1.2 -1.26 z M19.44 14.16 l0 -9.36 l4.8 0 l0 -0.56 l-5.36 0 l0 9.92 l0.56 0 z M24.44 20 l0 -0.54 l-5 0 l0 -4.14 l0.8 0 l0 -0.54 l-1.36 0 l0 5.22 l5.56 0 z M32.38 6.140000000000001 c0 0.08 0.23666 0.84334 0.71 2.29 s0.99 3.03 1.55 4.75 s1.3133 3.9934 2.26 6.82 l0.86 0 l-5.3 -15.76 l-0.16 0 l-5.26 15.76 l0.82 0 z M32.02 15.52 l-0.72 0 l1.2 4.48 l0.72 0 z M44.76 15.219999999999999 c0.85334 -0.48 1.5067 -1.1567 1.96 -2.03 s0.68 -1.8633 0.68 -2.97 l0 -0.28 c0 -1.64 -0.49 -3 -1.47 -4.08 s-2.3766 -1.62 -4.19 -1.62 l-1.38 0 l0 6.34 c0.22666 0.01334 0.45332 0.02 0.67998 0.02 l0 -5.72 l0.66 0 c1.64 0 2.88 0.47666 3.72 1.43 s1.26 2.1766 1.26 3.67 l0 0.22 c0 1.48 -0.42 2.6934 -1.26 3.64 s-2.08 1.42 -3.72 1.42 l-0.66 0 l0 0 l-0.68 0 l0 0.64 c0.4 0.01334 0.66666 0.02 0.8 0.02 l0.58 0 c0.92 0 1.7267 -0.14 2.42 -0.42 l2.48 4.5 l0.8 0 z M56.98 19.96 l0.039942 -0.63998 c-1.96 -0.13334 -3.52 -0.94668 -4.68 -2.44 c-1.1067 -1.3867 -1.66 -3.06 -1.66 -5.02 c0 -1.0267 0.16666 -1.9167 0.5 -2.67 s0.83334 -1.4833 1.5 -2.19 c1.3333 -1.4 3 -2.1 5 -2.1 c1.2133 0 2.3066 0.26 3.28 0.78 s1.7667 1.2467 2.38 2.18 l0.48 -0.38 c-0.66666 -1.0133 -1.5333 -1.8067 -2.6 -2.38 c-1.0133 -0.54666 -2.16 -0.81332 -3.44 -0.79998 c-1.08 0 -2.0934 0.18334 -3.04 0.55 s-1.78 0.93 -2.5 1.69 c-0.72 0.77334 -1.2633 1.5733 -1.63 2.4 s-0.55 1.8 -0.55 2.92 c0.01334 2.12 0.62 3.9334 1.82 5.44 c1.28 1.6133 2.98 2.5 5.1 2.66 z M58.2 19.98002 c1.0933 -0.06666 2.0934 -0.32664 3 -0.77998 c1.04 -0.53334 1.9133 -1.2867 2.62 -2.26 l-0.46 -0.4 c-0.64 0.88 -1.4467 1.5733 -2.42 2.08 c-0.84 0.42666 -1.76 0.66666 -2.76 0.72 z M67.10000000000001 13.96 l0 -9.72 l-0.68 0 l0 15.76 l0.68 0 l0 -5.4 l0 -0.64 z M67.38 14.6 l5.84 0 l0 5.4 l0.68 0 l0 -11.62 l-0.68 0 l0 5.58 l-5.84 0 l0 0.64 z"></path></g></svg>